<svg width="25" height="25" viewBox="0 0 25 25" fill="none" xmlns="http://www.w3.org/2000/svg">
<path fill-rule="evenodd" clip-rule="evenodd" d="M23.0249 21.399L18.7419 17.117C20.0192 15.5237 20.7138 13.542 20.7109 11.5C20.7109 6.532 16.6789 2.5 11.7109 2.5C6.74294 2.5 2.71094 6.532 2.71094 11.5C2.71094 16.468 6.74294 20.5 11.7109 20.5C13.7529 20.5029 15.7347 19.8082 17.3279 18.531L21.6099 22.814L23.0249 21.399ZM18.7109 11.5C18.7138 13.3204 18.005 15.0699 16.7359 16.375L16.5859 16.525C15.2808 17.7941 13.5314 18.5029 11.7109 18.5C7.84294 18.5 4.71094 15.367 4.71094 11.5C4.71094 7.632 7.84294 4.5 11.7109 4.5C15.5779 4.5 18.7109 7.632 18.7109 11.5Z" fill="#424850"/>
</svg>
